<svg xmlns="http://www.w3.org/2000/svg" viewBox="0 0 128 128" role="img" aria-label="AppRebase">
  <rect width="128" height="128" rx="28" fill="#ffffff"/>
  <g transform="translate(10 32.25) scale(0.94077) translate(-9 -12)" aria-hidden="true">
    <path fill="#060a0f" d="m35.2 17.7-20.7 56.3h10.2l4.5-13.1h22.3l4.6 13.1h9.9l-20.3-56.3h-10.5zm-2.4 34.1 7.6-21.2 7.7 21.2h-15.3z"/>
    <path fill="#060a0f" d="m110.7 44.8c2.9-2 5.5-5.4 5.5-11.5 0.3-6.3-3.2-15.6-15.4-15.6h-19.2c3.1 1.6 6.1 4.3 7.9 9h10.2c4.2-0.1 6.8 2.3 6.8 6.7s-2.5 7.2-6.5 7.2v9.4h1c4.4 0 7.3 2.4 7.3 6.8 0 4.5-2.5 7.5-7.1 7.5h-16.5l-6.5-13c3.7-1.6 9.5-5.5 9.5-16 0-8.6-5.4-17.6-17.2-17.6h-21.2l3.3 8.9h16.8c5.2 0 8.5 2.8 8.5 8.4 0 5-3.1 8.8-7.9 8.9h-11.2l3.4 9.2h6l10.2 20.9h23.2c9.4 0 16.6-4.6 16.6-16.2 0-7.4-3.7-11.2-7.5-13z"/>
    <path fill="#d12430" d="m90.4 40.6v9.2h9.2v-9.2h-9.2z"/>
  </g>
</svg>
